<svg xmlns="http://www.w3.org/2000/svg" width="900" height="640" viewBox="0 0 900 640">
  <defs><linearGradient id="g" x1="0" x2="1" y1="0" y2="1"><stop stop-color="#101010"/><stop offset="1" stop-color="#272219"/></linearGradient><radialGradient id="y" cx="78%" cy="10%" r="62%"><stop stop-color="#f3c62f" stop-opacity=".28"/><stop offset="1" stop-color="#f3c62f" stop-opacity="0"/></radialGradient></defs>
  <rect width="900" height="640" fill="url(#g)"/><rect width="900" height="640" fill="url(#y)"/>
  <g fill="none" stroke="#f3c62f" stroke-width="8" stroke-linecap="round" stroke-linejoin="round" opacity=".82"><path d="M455 110 300 550M455 110l155 440M350 405h210M385 305h140M415 210h80M250 250h410"/><path d="M120 550h660"/></g>
  <g stroke="#f5f2e8" stroke-width="2" opacity=".12"><path d="M0 180h900M0 260h900M0 340h900M0 420h900"/><path d="M150 0v640M300 0v640M450 0v640M600 0v640M750 0v640"/></g>
  <text x="64" y="86" fill="#f5f2e8" font-family="Arial" font-size="31" font-weight="700">Entrada e distribuição</text>
</svg>
